HIERARCHY
ROOT Hips
{
	OFFSET	0	0	0
	CHANNELS 6  Xposition Yposition Zposition Xrotation Yrotation Zrotation
	JOINT Spine
	{
		OFFSET	0	7.36801	1.47921
		CHANNELS 3  Xrotation Yrotation Zrotation
		JOINT Spine1
		{
			OFFSET	0	12.6146	-2.2526
			CHANNELS 3  Xrotation Yrotation Zrotation
			JOINT Spine2
			{
				OFFSET	0	9.56229	1.02493
				CHANNELS 3  Xrotation Yrotation Zrotation
				JOINT Spine3
				{
					OFFSET	0	11.4432	3.40143
					CHANNELS 3  Xrotation Yrotation Zrotation
					JOINT Spine4
					{
						OFFSET	0	16.9396	-1.7345
						CHANNELS 3  Xrotation Yrotation Zrotation
						JOINT Neck
						{
							OFFSET	0	8.08684	-5.66529
							CHANNELS 3  Xrotation Yrotation Zrotation
							JOINT Head
							{
								OFFSET	0	9.70872	-2.90586
								CHANNELS 3  Xrotation Yrotation Zrotation
								End Site
								{
									OFFSET	0	20.2509	-0.979882
								}
							}
						}
					}
					JOINT LeftShoulder
					{
						OFFSET	-4.86562	20.5888	-9.70871
						CHANNELS 3  Xrotation Yrotation Zrotation
						JOINT LeftArm
						{
							OFFSET	-10.6038	-2.90585	3.72808
							CHANNELS 3  Xrotation Yrotation Zrotation
							JOINT LeftForeArm
							{
								OFFSET	-30.8337	-1.4073	2.20088
								CHANNELS 3  Xrotation Yrotation Zrotation
								JOINT LeftHand
								{
									OFFSET	-25.1332	-1.73684	1.79398
									CHANNELS 3  Xrotation Yrotation Zrotation
									End Site
									{
										OFFSET	-9.17235	-0.633862	0.65467
									}
								}
							}
						}
					}
					JOINT RightShoulder
					{
						OFFSET	4.86562	20.5888	-9.70871
						CHANNELS 3  Xrotation Yrotation Zrotation
						JOINT RightArm
						{
							OFFSET	10.6038	-2.90585	3.72808
							CHANNELS 3  Xrotation Yrotation Zrotation
							JOINT RightForeArm
							{
								OFFSET	30.8337	-1.4073	2.20088
								CHANNELS 3  Xrotation Yrotation Zrotation
								JOINT RightHand
								{
									OFFSET	25.1332	-1.73684	1.79398
									CHANNELS 3  Xrotation Yrotation Zrotation
									End Site
									{
										OFFSET	9.17235	-0.633862	0.65467
									}
								}
							}
						}
					}
				}
			}
		}
	}
	JOINT LeftUpLeg
	{
		OFFSET	-10.0134	-3.684	-0.739604
		CHANNELS 3  Xrotation Yrotation Zrotation
		JOINT LeftLeg
		{
			OFFSET	-2.30148	-45.0967	-0.70496
			CHANNELS 3  Xrotation Yrotation Zrotation
			JOINT LeftFoot
			{
				OFFSET	-2.24997	-41.4741	3.56677
				CHANNELS 3  Xrotation Yrotation Zrotation
				JOINT LeftToeBase
				{
					OFFSET	0	-5.07523	-13.4798
					CHANNELS 3  Xrotation Yrotation Zrotation
					End Site
					{
						OFFSET	0	-2.03009	-8.12037
					}
				}
			}
		}
	}
	JOINT RightUpLeg
	{
		OFFSET	10.0134	-3.684	-0.739604
		CHANNELS 3  Xrotation Yrotation Zrotation
		JOINT RightLeg
		{
			OFFSET	2.30148	-45.0967	-0.70496
			CHANNELS 3  Xrotation Yrotation Zrotation
			JOINT RightFoot
			{
				OFFSET	2.24997	-41.4741	3.56677
				CHANNELS 3  Xrotation Yrotation Zrotation
				JOINT RightToeBase
				{
					OFFSET	0	-5.07523	-13.4798
					CHANNELS 3  Xrotation Yrotation Zrotation
					End Site
					{
						OFFSET	0	-2.03009	-8.12037
					}
				}
			}
		}
	}
}
MOTION
Frames: 8
Frame Time: 0.020408
 -211.327 77.1859 294.652 157.546 -152.416 -170.393 179.999 -179.994 174.155 0.977493 -0.012556 -9.74192 0.363381 -0.0376681 -9.74193 178.823 -179.994 174.155 4.59251 -0.156064 -1.94213 10.7207 11.1318 13.4329 3.65016 -1.82322 4.4625 0.522831 -12.5358 1.09761 126.02 -96.2306 -141.651 4.46203 -5.92539 -1.3442 -0 8.91395 -19.2264 179.975 177.004 -179.95 147.305 128.045 155.635 4.40857 28.4065 -0.314004 -0 -4.79657 -1.48826 75.261 -17.8592 -0.504474 93.1435 164.763 179.622 18.597 0.0101868 10.8316 179.939 180 -180 10.5346 9.4097 -44.0445 152.966 -159.898 -179.728 38.2143 -0.00410247 11.4907 3.66721 0 0
 -208.374 77.803 292.916 156.721 -152.038 -170.132 0.000257349 0.00266762 -5.51035 1.02165 0.0052913 -9.18391 0.422416 0.0158739 -9.18391 178.878 179.997 174.49 4.54458 -0.145587 -1.83101 10.5646 11.2514 13.3642 3.59647 -1.45371 4.44566 0.273467 -12.7077 0.574531 117.547 -97.5178 -150.656 4.34547 -5.9331 -1.35831 -0 9.14877 -19.4711 179.554 176.374 -179.114 146.618 128.35 156.589 4.46866 28.825 -0.32347 -0 -4.46525 -1.66006 74.0714 -18.6119 -0.847787 91.8552 164.903 179.603 19.3898 0.078472 10.7482 179.945 180 -180 11.1663 8.82168 -43.2742 153.282 -159.69 -179.831 38.2113 -0.00511427 11.5058 3.75487 0 0
 -204.392 78.0467 290.634 157.051 -152.76 -169.194 180 -179.995 174.879 1.09414 -0.0109338 -8.53464 0.48191 -0.0328015 -8.53464 178.903 -179.995 174.879 4.62583 -0.137701 -1.70137 10.7269 11.3801 13.3112 3.64401 -1.28458 4.44782 0.191435 -13.175 0.403033 109.072 -99.607 -160.248 4.16413 -5.94753 -1.34137 -0 9.34498 -19.6403 179.008 175.75 -178.018 145.59 128.919 157.783 4.47295 28.7813 -0.468035 -0 -4.09506 -1.94773 71.8985 -19.5154 -3.16802 89.4548 165.145 179.706 19.1859 0.0269991 10.7311 179.951 180 -180 11.405 8.00069 -42.4096 153.311 -159.05 179.725 39.8664 0.00574772 11.5433 3.86563 0 0
 -199.366 77.3198 289.263 157.544 -152.418 -169.516 0.000373168 0.00521618 -4.09199 1.20566 0.010385 -6.81999 0.456132 0.031155 -6.81999 178.547 179.995 175.908 5.66395 -0.134643 -1.35734 13.5912 11.8817 12.6601 4.50042 -1.32063 4.43639 179.938 -166.423 179.869 102.252 -102.516 -167.543 3.95944 -6.0323 -1.31031 -0 9.38816 -19.6469 178.51 174.825 -177.002 144.215 130.801 160.23 4.22544 26.5884 -0.0920262 -0 -3.9433 -2.18834 69.577 -21.1324 -5.50544 87.1046 165.291 179.713 19.7715 0.0125447 10.4391 179.955 180 -180 10.6316 6.03409 -43.463 151.848 -157.972 179.623 40.2138 0.0196335 11.5495 3.98659 0 0
 -195.108 77.2347 287.309 157.237 -152.486 -169.417 0.000538178 0.00891623 -3.45415 1.31013 0.0177748 -5.75691 0.472174 0.0533244 -5.75691 178.348 179.991 176.546 6.32561 -0.126875 -1.14437 15.3908 11.9485 12.2495 5.03742 -1.6682 4.41805 179.598 -166.806 179.154 99.0274 -104.697 -170.06 3.81918 -6.53696 -1.22608 -0 9.37905 -19.6069 178.188 173.929 -176.33 143.056 132.645 162.296 3.93951 23.8205 0.144296 -0 -3.88419 -2.45355 66.65 -22.2432 -7.79907 85.506 165.351 179.844 20.407 0.00681596 10.1769 179.959 180 -180 11.225 3.10204 -44.1845 150.316 -156.933 179.923 40.4313 0.01101 11.5406 4.10459 0 0
 -191.349 77.583 285.562 157.495 -150.131 -169.004 0.000458064 0.00901684 -2.90818 1.38741 0.0179924 -4.84696 0.500347 0.0539771 -4.84696 178.254 179.991 177.092 6.69182 -0.112973 -0.962787 16.361 11.5918 12.0919 5.33156 -2.46981 4.40618 179.668 -167.544 179.302 97.5218 -105.403 -170.468 3.73008 -7.7776 -1.18139 -0 9.24943 -19.5332 177.835 173.659 -175.607 142.392 135.329 164.366 3.52687 20.0142 0.736095 -0 -4.02277 -2.54651 63.2901 -22.6116 -10.0798 84.1706 165.546 -179.987 19.2632 0.0326191 10.0242 179.96 180 -180 11.8526 0.394499 -44.9849 148.665 -155.776 179.992 40.6259 -0.00662537 11.5471 4.23653 0 0
 -188.02 78.1555 282.719 158.153 -148.3 -170.196 180 -179.996 177.821 1.43999 -0.00835498 -3.63197 0.56193 -0.0250649 -3.63197 178.329 -179.996 177.821 6.61861 -0.0837286 -0.721554 16.0953 10.9694 12.2192 5.25773 -3.35432 4.39077 179.667 -168.49 179.305 96.6994 -105.698 -169.866 3.72754 -8.83523 -1.12565 -0 9.18679 -19.4039 177.92 173.413 -175.773 142.406 138.477 167.26 2.99541 14.8801 1.30789 -0 -4.46045 -2.34147 59.4145 -22.7099 -12.5585 82.4876 165.934 179.937 16.6548 -0.0994519 9.93663 179.959 180 -180 13.5011 -3.43594 -45.3377 146.678 -154.83 179.66 40.7134 0.0485471 11.461 4.36027 0 0
 -184.499 78.9141 281.128 158.547 -146.018 -170.63 180 -179.998 178.197 1.4885 -0.00370615 -3.0057 0.655313 -0.0111184 -3.0057 178.494 -179.998 178.197 6.32546 -0.0662336 -0.59748 15.2258 10.144 12.4189 4.99897 -4.3024 4.34563 179.443 -169.242 178.841 95.9192 -106.336 -169.549 3.7397 -9.39096 -1.12696 -0 9.20247 -19.2766 178.257 172.829 -176.445 142.788 141.3 170.599 2.49186 10.0572 1.74017 -0 -4.8772 -1.93719 57.0674 -22.8723 -13.7935 81.5755 166.118 -179.924 15.0902 -0.0359929 9.84881 179.96 180 -180 14.5426 -6.72366 -45.3414 145.074 -155.866 179.59 40.28 -0.0152924 11.3889 4.46582 0 0
